<?xml version="1.0" encoding="UTF-8"?>
<!DOCTYPE svg PUBLIC "-//W3C//DTD SVG 1.1//EN" "http://www.w3.org/Graphics/SVG/1.1/DTD/svg11.dtd">
<svg xmlns="http://www.w3.org/2000/svg" version="1.1" width="500px" height="375px" style="shape-rendering:geometricPrecision; text-rendering:geometricPrecision; image-rendering:optimizeQuality; fill-rule:evenodd; clip-rule:evenodd" xmlns:xlink="http://www.w3.org/1999/xlink">
<g><path style="opacity:1" fill="#6e695c" d="M 248.5,97.5 C 245.941,97.1984 243.607,97.5318 241.5,98.5C 239.833,98.5 238.167,98.5 236.5,98.5C 236.5,97.8333 236.167,97.5 235.5,97.5C 235.5,97.1667 235.5,96.8333 235.5,96.5C 240.012,95.2433 244.346,95.5766 248.5,97.5 Z"/></g>
<g><path style="opacity:1" fill="#6d6a5d" d="M 235.5,96.5 C 235.5,96.8333 235.5,97.1667 235.5,97.5C 232.784,97.3862 230.784,98.3862 229.5,100.5C 228.609,99.8902 227.609,99.5569 226.5,99.5C 229.084,97.5275 232.084,96.5275 235.5,96.5 Z"/></g>
<g><path style="opacity:1" fill="#504b3b" d="M 236.5,98.5 C 238.167,98.5 239.833,98.5 241.5,98.5C 246.079,98.3401 246.412,99.0067 242.5,100.5C 240.118,99.4537 237.785,99.4537 235.5,100.5C 235.833,99.8333 236.167,99.1667 236.5,98.5 Z"/></g>
<g><path style="opacity:1" fill="#615c4d" d="M 248.5,97.5 C 249.791,97.2627 250.791,97.596 251.5,98.5C 250.624,98.3691 249.957,98.7025 249.5,99.5C 250.172,101.53 250.838,103.53 251.5,105.5C 249.597,105.204 247.93,104.537 246.5,103.5C 250.056,103.725 250.39,102.892 247.5,101C 247.989,99.8615 248.322,98.6948 248.5,97.5 Z"/></g>
<g><path style="opacity:1" fill="#615b4c" d="M 242.5,100.5 C 243.448,101.978 244.781,102.978 246.5,103.5C 241.431,102.292 236.431,102.626 231.5,104.5C 232.791,103.527 232.791,102.527 231.5,101.5C 232.689,100.571 234.022,100.238 235.5,100.5C 237.785,99.4537 240.118,99.4537 242.5,100.5 Z"/></g>
<g><path style="opacity:1" fill="#4c4635" d="M 241.5,98.5 C 243.607,97.5318 245.941,97.1984 248.5,97.5C 248.322,98.6948 247.989,99.8615 247.5,101C 250.39,102.892 250.056,103.725 246.5,103.5C 244.781,102.978 243.448,101.978 242.5,100.5C 246.412,99.0067 246.079,98.3401 241.5,98.5 Z"/></g>
<g><path style="opacity:1" fill="#4e4838" d="M 235.5,97.5 C 236.167,97.5 236.5,97.8333 236.5,98.5C 236.167,99.1667 235.833,99.8333 235.5,100.5C 234.022,100.238 232.689,100.571 231.5,101.5C 232.791,102.527 232.791,103.527 231.5,104.5C 231.167,104.5 230.833,104.5 230.5,104.5C 228.05,104.298 225.717,104.631 223.5,105.5C 223.414,104.504 223.748,103.671 224.5,103C 226.744,102.95 228.411,102.117 229.5,100.5C 230.784,98.3862 232.784,97.3862 235.5,97.5 Z"/></g>
<g><path style="opacity:1" fill="#4f4a39" d="M 251.5,98.5 C 251.821,100.048 252.821,100.715 254.5,100.5C 254.5,101.5 254.5,102.5 254.5,103.5C 254.027,104.906 253.027,105.573 251.5,105.5C 250.838,103.53 250.172,101.53 249.5,99.5C 249.957,98.7025 250.624,98.3691 251.5,98.5 Z"/></g>
<g><path style="opacity:1" fill="#5d5849" d="M 251.5,98.5 C 254.485,99.3257 257.151,100.659 259.5,102.5C 258.041,102.433 256.708,102.766 255.5,103.5C 255.167,103.5 254.833,103.5 254.5,103.5C 254.5,102.5 254.5,101.5 254.5,100.5C 252.821,100.715 251.821,100.048 251.5,98.5 Z"/></g>
<g><path style="opacity:1" fill="#534e3d" d="M 226.5,99.5 C 227.609,99.5569 228.609,99.8902 229.5,100.5C 228.411,102.117 226.744,102.95 224.5,103C 223.748,103.671 223.414,104.504 223.5,105.5C 223.5,106.167 223.167,106.5 222.5,106.5C 221.833,106.5 221.167,106.5 220.5,106.5C 220.158,105.662 219.492,105.328 218.5,105.5C 220.443,102.529 223.109,100.529 226.5,99.5 Z"/></g>
<g><path style="opacity:1" fill="#5d594a" d="M 230.5,104.5 C 227.841,106.164 225.175,107.83 222.5,109.5C 222.5,108.5 222.5,107.5 222.5,106.5C 223.167,106.5 223.5,106.167 223.5,105.5C 225.717,104.631 228.05,104.298 230.5,104.5 Z"/></g>
<g><path style="opacity:1" fill="#656052" d="M 254.5,103.5 C 254.833,103.5 255.167,103.5 255.5,103.5C 254.014,106.371 255.014,107.705 258.5,107.5C 257.833,108.167 257.167,108.833 256.5,109.5C 254.809,108.136 253.142,106.803 251.5,105.5C 253.027,105.573 254.027,104.906 254.5,103.5 Z"/></g>
<g><path style="opacity:1" fill="#575343" d="M 260.5,103.5 C 262.434,104.11 264.101,105.11 265.5,106.5C 264.833,106.833 264.167,107.167 263.5,107.5C 261.883,106.962 260.216,106.629 258.5,106.5C 258.285,104.821 258.952,103.821 260.5,103.5 Z"/></g>
<g><path style="opacity:1" fill="#504b38" d="M 259.5,102.5 C 260.167,102.5 260.5,102.833 260.5,103.5C 258.952,103.821 258.285,104.821 258.5,106.5C 258.5,106.833 258.5,107.167 258.5,107.5C 255.014,107.705 254.014,106.371 255.5,103.5C 256.708,102.766 258.041,102.433 259.5,102.5 Z"/></g>
<g><path style="opacity:1" fill="#4f4c3a" d="M 218.5,105.5 C 219.492,105.328 220.158,105.662 220.5,106.5C 219.761,106.369 219.094,106.536 218.5,107C 219.252,107.671 219.586,108.504 219.5,109.5C 218.5,109.5 217.5,109.5 216.5,109.5C 215.609,110.11 214.609,110.443 213.5,110.5C 214.833,108.5 216.5,106.833 218.5,105.5 Z"/></g>
<g><path style="opacity:1" fill="#524c3d" d="M 220.5,106.5 C 221.167,106.5 221.833,106.5 222.5,106.5C 222.5,107.5 222.5,108.5 222.5,109.5C 222.167,110.5 221.5,111.167 220.5,111.5C 220.167,110.833 219.833,110.167 219.5,109.5C 219.586,108.504 219.252,107.671 218.5,107C 219.094,106.536 219.761,106.369 220.5,106.5 Z"/></g>
<g><path style="opacity:1" fill="#514c3c" d="M 258.5,106.5 C 260.216,106.629 261.883,106.962 263.5,107.5C 263.082,108.222 262.416,108.722 261.5,109C 263.376,109.918 264.376,111.418 264.5,113.5C 263.508,113.672 262.842,113.338 262.5,112.5C 261.687,111.347 260.687,111.347 259.5,112.5C 258.749,111.624 258.249,110.624 258,109.5C 257.601,109.728 257.435,110.062 257.5,110.5C 256.833,110.5 256.5,110.167 256.5,109.5C 257.167,108.833 257.833,108.167 258.5,107.5C 258.5,107.167 258.5,106.833 258.5,106.5 Z"/></g>
<g><path style="opacity:1" fill="#5f5a4c" d="M 265.5,106.5 C 268.203,108.181 270.869,109.847 273.5,111.5C 272.504,111.414 271.671,111.748 271,112.5C 269.961,111.29 268.794,110.29 267.5,109.5C 265.952,109.179 265.285,108.179 265.5,106.5 Z"/></g>
<g><path style="opacity:1" fill="#4e4838" d="M 265.5,106.5 C 265.285,108.179 265.952,109.179 267.5,109.5C 267.5,110.5 267.5,111.5 267.5,112.5C 266.609,113.11 265.609,113.443 264.5,113.5C 264.376,111.418 263.376,109.918 261.5,109C 262.416,108.722 263.082,108.222 263.5,107.5C 264.167,107.167 264.833,106.833 265.5,106.5 Z"/></g>
<g><path style="opacity:1" fill="#575243" d="M 216.5,109.5 C 217.5,109.5 218.5,109.5 219.5,109.5C 219.833,110.167 220.167,110.833 220.5,111.5C 219.876,113.754 218.543,115.421 216.5,116.5C 215.933,114.302 215.933,111.969 216.5,109.5 Z"/></g>
<g><path style="opacity:1" fill="#504c3a" d="M 216.5,109.5 C 215.933,111.969 215.933,114.302 216.5,116.5C 215.833,116.5 215.167,116.5 214.5,116.5C 213.708,114.255 212.375,113.922 210.5,115.5C 211.11,113.566 212.11,111.899 213.5,110.5C 214.609,110.443 215.609,110.11 216.5,109.5 Z"/></g>
<g><path style="opacity:1" fill="#5b5647" d="M 267.5,112.5 C 269.745,112.541 270.412,113.375 269.5,115C 271.55,115.416 272.884,116.583 273.5,118.5C 270.008,117.59 267.008,115.924 264.5,113.5C 265.609,113.443 266.609,113.11 267.5,112.5 Z"/></g>
<g><path style="opacity:1" fill="#4e4937" d="M 267.5,109.5 C 268.794,110.29 269.961,111.29 271,112.5C 271.671,111.748 272.504,111.414 273.5,111.5C 272.33,114.973 273.664,117.14 277.5,118C 276.552,118.483 275.552,118.649 274.5,118.5C 274.167,118.5 273.833,118.5 273.5,118.5C 272.884,116.583 271.55,115.416 269.5,115C 270.412,113.375 269.745,112.541 267.5,112.5C 267.5,111.5 267.5,110.5 267.5,109.5 Z"/></g>
<g><path style="opacity:1" fill="#5e5a4a" d="M 275.5,112.5 C 278.067,112.721 280.401,113.388 282.5,114.5C 281.209,114.263 280.209,114.596 279.5,115.5C 278.07,115.579 276.736,115.246 275.5,114.5C 274.227,113.743 274.227,113.077 275.5,112.5 Z"/></g>
<g><path style="opacity:1" fill="#4f4837" d="M 214.5,116.5 C 213.566,117.568 213.232,118.901 213.5,120.5C 211.592,119.514 210.592,117.848 210.5,115.5C 212.375,113.922 213.708,114.255 214.5,116.5 Z"/></g>
<g><path style="opacity:1" fill="#615d4f" d="M 262.5,112.5 C 261.596,113.209 261.263,114.209 261.5,115.5C 261.5,116.5 261.5,117.5 261.5,118.5C 259.127,116.421 257.794,113.754 257.5,110.5C 257.435,110.062 257.601,109.728 258,109.5C 258.249,110.624 258.749,111.624 259.5,112.5C 260.687,111.347 261.687,111.347 262.5,112.5 Z"/></g>
<g><path style="opacity:1" fill="#4b4735" d="M 282.5,114.5 C 283.167,114.5 283.833,114.5 284.5,114.5C 287.641,115.321 290.975,115.821 294.5,116C 293.552,116.483 292.552,116.649 291.5,116.5C 287.781,117.359 284.114,117.359 280.5,116.5C 279.833,116.5 279.5,116.167 279.5,115.5C 280.209,114.596 281.209,114.263 282.5,114.5 Z"/></g>
<g><path style="opacity:1" fill="#706b5f" d="M 284.5,114.5 C 290.739,114.276 296.739,114.943 302.5,116.5C 299.612,115.99 297.279,116.656 295.5,118.5C 295.167,118.5 294.833,118.5 294.5,118.5C 293.5,117.833 292.5,117.167 291.5,116.5C 292.552,116.649 293.552,116.483 294.5,116C 290.975,115.821 287.641,115.321 284.5,114.5 Z"/></g>
<g><path style="opacity:1" fill="#676256" d="M 214.5,116.5 C 215.167,116.5 215.833,116.5 216.5,116.5C 216.008,118.819 215.008,120.819 213.5,122.5C 213.5,121.833 213.5,121.167 213.5,120.5C 213.232,118.901 213.566,117.568 214.5,116.5 Z"/></g>
<g><path style="opacity:1" fill="#575141" d="M 273.5,111.5 C 274.492,111.328 275.158,111.662 275.5,112.5C 274.227,113.077 274.227,113.743 275.5,114.5C 276.736,115.246 278.07,115.579 279.5,115.5C 279.5,116.167 279.833,116.5 280.5,116.5C 279.833,117.167 279.167,117.833 278.5,118.5C 279.5,119.167 280.5,119.833 281.5,120.5C 278.848,120.59 276.515,119.924 274.5,118.5C 275.552,118.649 276.552,118.483 277.5,118C 273.664,117.14 272.33,114.973 273.5,111.5 Z"/></g>
<g><path style="opacity:1" fill="#514b3b" d="M 280.5,116.5 C 284.114,117.359 287.781,117.359 291.5,116.5C 292.5,117.167 293.5,117.833 294.5,118.5C 292.599,118.567 290.766,118.233 289,117.5C 287.699,117.639 286.866,118.305 286.5,119.5C 283.946,118.612 281.279,118.279 278.5,118.5C 279.167,117.833 279.833,117.167 280.5,116.5 Z"/></g>
<g><path style="opacity:1" fill="#565142" d="M 302.5,116.5 C 305.241,116.707 307.574,117.707 309.5,119.5C 308.167,119.833 306.833,120.167 305.5,120.5C 305.158,119.662 304.492,119.328 303.5,119.5C 302.596,118.791 302.263,117.791 302.5,116.5 Z"/></g>
<g><path style="opacity:1" fill="#514a39" d="M 294.5,118.5 C 294.833,118.5 295.167,118.5 295.5,118.5C 295.158,119.338 294.492,119.672 293.5,119.5C 291.167,119.5 288.833,119.5 286.5,119.5C 286.866,118.305 287.699,117.639 289,117.5C 290.766,118.233 292.599,118.567 294.5,118.5 Z"/></g>
<g><path style="opacity:1" fill="#5c5748" d="M 302.5,116.5 C 302.263,117.791 302.596,118.791 303.5,119.5C 303.631,120.376 303.298,121.043 302.5,121.5C 300.568,120.48 298.568,120.313 296.5,121C 297.737,121.232 298.737,121.732 299.5,122.5C 293.331,122.082 287.331,121.415 281.5,120.5C 285.702,120.817 289.702,120.483 293.5,119.5C 294.492,119.672 295.158,119.338 295.5,118.5C 297.279,116.656 299.612,115.99 302.5,116.5 Z"/></g>
<g><path style="opacity:1" fill="#464230" d="M 278.5,118.5 C 281.279,118.279 283.946,118.612 286.5,119.5C 288.833,119.5 291.167,119.5 293.5,119.5C 289.702,120.483 285.702,120.817 281.5,120.5C 280.5,119.833 279.5,119.167 278.5,118.5 Z"/></g>
<g><path style="opacity:1" fill="#514c3d" d="M 210.5,115.5 C 210.592,117.848 211.592,119.514 213.5,120.5C 213.5,121.167 213.5,121.833 213.5,122.5C 211.907,123.348 210.74,124.681 210,126.5C 209.578,124.574 208.411,123.574 206.5,123.5C 207.326,120.515 208.659,117.849 210.5,115.5 Z"/></g>
<g><path style="opacity:1" fill="#6f6c65" d="M 261.5,115.5 C 262.921,118.758 265.254,121.258 268.5,123C 265.309,122.999 262.976,121.499 261.5,118.5C 261.5,117.5 261.5,116.5 261.5,115.5 Z"/></g>
<g><path style="opacity:1" fill="#514b3c" d="M 303.5,119.5 C 304.492,119.328 305.158,119.662 305.5,120.5C 304.147,121.867 304.481,122.867 306.5,123.5C 307.518,122.807 308.518,122.141 309.5,121.5C 310.401,122.29 311.068,123.29 311.5,124.5C 310.167,124.833 308.833,125.167 307.5,125.5C 304.993,124.108 302.327,123.108 299.5,122.5C 298.737,121.732 297.737,121.232 296.5,121C 298.568,120.313 300.568,120.48 302.5,121.5C 303.298,121.043 303.631,120.376 303.5,119.5 Z"/></g>
<g><path style="opacity:1" fill="#504a37" d="M 309.5,119.5 C 309.5,120.167 309.5,120.833 309.5,121.5C 308.518,122.141 307.518,122.807 306.5,123.5C 304.481,122.867 304.147,121.867 305.5,120.5C 306.833,120.167 308.167,119.833 309.5,119.5 Z"/></g>
<g><path style="opacity:1" fill="#5e5949" d="M 309.5,119.5 C 311.674,119.75 313.341,120.75 314.5,122.5C 313.5,123.167 312.5,123.833 311.5,124.5C 311.068,123.29 310.401,122.29 309.5,121.5C 309.5,120.833 309.5,120.167 309.5,119.5 Z"/></g>
<g><path style="opacity:1" fill="#514b3d" d="M 314.5,122.5 C 316.167,123.5 317.5,124.833 318.5,126.5C 315.848,126.59 313.515,125.924 311.5,124.5C 312.5,123.833 313.5,123.167 314.5,122.5 Z"/></g>
<g><path style="opacity:1" fill="#5a5545" d="M 213.5,122.5 C 212.679,126.127 211.346,129.46 209.5,132.5C 208.833,132.5 208.167,132.5 207.5,132.5C 205.833,133.167 204.167,133.833 202.5,134.5C 202.796,132.597 203.463,130.93 204.5,129.5C 204.821,131.048 205.821,131.715 207.5,131.5C 207.923,129.219 207.256,127.552 205.5,126.5C 205.263,125.209 205.596,124.209 206.5,123.5C 208.411,123.574 209.578,124.574 210,126.5C 210.74,124.681 211.907,123.348 213.5,122.5 Z"/></g>
<g><path style="opacity:1" fill="#585344" d="M 311.5,124.5 C 313.515,125.924 315.848,126.59 318.5,126.5C 319.833,127.167 320.833,128.167 321.5,129.5C 320.391,129.443 319.391,129.11 318.5,128.5C 316.58,127.721 314.747,127.387 313,127.5C 312.536,128.094 312.369,128.761 312.5,129.5C 310.809,128.136 309.142,126.803 307.5,125.5C 308.833,125.167 310.167,124.833 311.5,124.5 Z"/></g>
<g><path style="opacity:1" fill="#524d3a" d="M 205.5,126.5 C 207.256,127.552 207.923,129.219 207.5,131.5C 205.821,131.715 204.821,131.048 204.5,129.5C 204.263,128.209 204.596,127.209 205.5,126.5 Z"/></g>
<g><path style="opacity:1" fill="#68675a" d="M 242.5,131.5 C 242.167,131.5 241.833,131.5 241.5,131.5C 241.167,131.5 240.833,131.5 240.5,131.5C 239.763,129.695 238.763,128.029 237.5,126.5C 237.833,126.167 238.167,125.833 238.5,125.5C 240.326,127.147 241.66,129.147 242.5,131.5 Z"/></g>
<g><path style="opacity:1" fill="#4f4937" d="M 318.5,128.5 C 318.5,129.167 318.5,129.833 318.5,130.5C 317.778,130.918 317.278,131.584 317,132.5C 316.411,130.137 314.911,129.137 312.5,129.5C 312.369,128.761 312.536,128.094 313,127.5C 314.747,127.387 316.58,127.721 318.5,128.5 Z"/></g>
<g><path style="opacity:1" fill="#616053" d="M 244.5,132.5 C 243.596,133.209 243.263,134.209 243.5,135.5C 242.833,135.5 242.5,135.167 242.5,134.5C 241.89,133.609 241.557,132.609 241.5,131.5C 241.833,131.5 242.167,131.5 242.5,131.5C 244.402,130.632 246.235,129.632 248,128.5C 248.5,128.833 249,129.167 249.5,129.5C 247.971,130.763 246.305,131.763 244.5,132.5 Z"/></g>
<g><path style="opacity:1" fill="#5c584a" d="M 312.5,129.5 C 314.911,129.137 316.411,130.137 317,132.5C 317.278,131.584 317.778,130.918 318.5,130.5C 318.833,131.167 319.167,131.833 319.5,132.5C 318.668,133.329 319.001,134.162 320.5,135C 319.402,135.77 319.402,136.603 320.5,137.5C 321.301,139.042 321.634,140.708 321.5,142.5C 319.252,137.678 316.252,133.345 312.5,129.5 Z"/></g>
<g><path style="opacity:1" fill="#5a5544" d="M 318.5,128.5 C 319.391,129.11 320.391,129.443 321.5,129.5C 322.906,129.973 323.573,130.973 323.5,132.5C 322.167,131.167 320.833,131.167 319.5,132.5C 319.167,131.833 318.833,131.167 318.5,130.5C 318.5,129.833 318.5,129.167 318.5,128.5 Z"/></g>
<g><path style="opacity:1" fill="#4f4938" d="M 323.5,132.5 C 323.5,133.5 323.5,134.5 323.5,135.5C 322.222,135.782 321.222,136.449 320.5,137.5C 319.402,136.603 319.402,135.77 320.5,135C 319.001,134.162 318.668,133.329 319.5,132.5C 320.833,131.167 322.167,131.167 323.5,132.5 Z"/></g>
<g><path style="opacity:1" fill="#534e3d" d="M 207.5,132.5 C 207.975,135.082 207.308,137.082 205.5,138.5C 205.539,137.244 205.039,136.244 204,135.5C 203.777,137.881 202.61,139.547 200.5,140.5C 200.971,138.421 201.637,136.421 202.5,134.5C 204.167,133.833 205.833,133.167 207.5,132.5 Z"/></g>
<g><path style="opacity:1" fill="#6c6a60" d="M 240.5,131.5 C 240.833,131.5 241.167,131.5 241.5,131.5C 241.557,132.609 241.89,133.609 242.5,134.5C 240.243,134.962 238.243,135.962 236.5,137.5C 236.167,137.167 235.833,136.833 235.5,136.5C 237.47,135.039 239.137,133.373 240.5,131.5 Z"/></g>
<g><path style="opacity:1" fill="#706f64" d="M 244.5,132.5 C 244.781,134.963 245.781,137.13 247.5,139C 244.862,139.509 243.528,138.342 243.5,135.5C 243.263,134.209 243.596,133.209 244.5,132.5 Z"/></g>
<g><path style="opacity:1" fill="#544f40" d="M 323.5,132.5 C 325.008,134.181 326.008,136.181 326.5,138.5C 326.66,140.199 326.494,141.866 326,143.5C 325.722,142.584 325.222,141.918 324.5,141.5C 323.85,139.565 323.517,137.565 323.5,135.5C 323.5,134.5 323.5,133.5 323.5,132.5 Z"/></g>
<g><path style="opacity:1" fill="#4d4737" d="M 205.5,138.5 C 203.139,139.788 201.639,141.788 201,144.5C 200.517,143.552 200.351,142.552 200.5,141.5C 200.5,141.167 200.5,140.833 200.5,140.5C 202.61,139.547 203.777,137.881 204,135.5C 205.039,136.244 205.539,137.244 205.5,138.5 Z"/></g>
<g><path style="opacity:1" fill="#645f51" d="M 207.5,132.5 C 208.167,132.5 208.833,132.5 209.5,132.5C 208.943,137.165 207.61,141.498 205.5,145.5C 205.5,143.167 205.5,140.833 205.5,138.5C 207.308,137.082 207.975,135.082 207.5,132.5 Z"/></g>
<g><path style="opacity:1" fill="#4d4835" d="M 323.5,135.5 C 323.517,137.565 323.85,139.565 324.5,141.5C 323.833,142.833 323.167,144.167 322.5,145.5C 322.672,144.508 322.338,143.842 321.5,143.5C 321.5,143.167 321.5,142.833 321.5,142.5C 321.634,140.708 321.301,139.042 320.5,137.5C 321.222,136.449 322.222,135.782 323.5,135.5 Z"/></g>
<g><path style="opacity:1" fill="#585342" d="M 205.5,138.5 C 205.5,140.833 205.5,143.167 205.5,145.5C 205.59,148.152 204.924,150.485 203.5,152.5C 202.94,150.199 202.44,147.866 202,145.5C 201.536,146.094 201.369,146.761 201.5,147.5C 200.609,148.11 199.609,148.443 198.5,148.5C 198.721,145.933 199.388,143.599 200.5,141.5C 200.351,142.552 200.517,143.552 201,144.5C 201.639,141.788 203.139,139.788 205.5,138.5 Z"/></g>
<g><path style="opacity:1" fill="#585445" d="M 326.5,138.5 C 327.308,140.22 328.308,141.887 329.5,143.5C 328.504,143.414 327.671,143.748 327,144.5C 326.505,146.473 326.338,148.473 326.5,150.5C 325.094,150.027 324.427,149.027 324.5,147.5C 323.833,146.833 323.167,146.167 322.5,145.5C 323.167,144.167 323.833,142.833 324.5,141.5C 325.222,141.918 325.722,142.584 326,143.5C 326.494,141.866 326.66,140.199 326.5,138.5 Z"/></g>
<g><path style="opacity:1" fill="#666358" d="M 285.5,143.5 C 284.833,144.167 284.167,144.833 283.5,145.5C 275.479,149.65 274.812,148.816 281.5,143C 280.516,141.343 279.516,139.677 278.5,138C 279,137.5 279.5,137 280,136.5C 281.333,138.5 282.667,140.5 284,142.5C 286.056,140.681 288.223,140.015 290.5,140.5C 289.06,141.952 287.394,142.952 285.5,143.5 Z"/></g>
<g><path style="opacity:1" fill="#6f6c61" d="M 336.5,143.5 C 338.693,142.203 341.027,142.203 343.5,143.5C 342.119,145.635 341.119,147.968 340.5,150.5C 339.833,148.5 339.167,146.5 338.5,144.5C 337.817,144.137 337.15,143.804 336.5,143.5 Z"/></g>
<g><path style="opacity:1" fill="#464131" d="M 345.5,142.5 C 346.167,142.5 346.833,142.5 347.5,142.5C 347.167,143.833 346.833,145.167 346.5,146.5C 346.5,147.5 346.5,148.5 346.5,149.5C 345.532,147.393 345.198,145.059 345.5,142.5 Z"/></g>
<g><path style="opacity:1" fill="#534d3c" d="M 329.5,143.5 C 330.338,143.842 330.672,144.508 330.5,145.5C 329.069,146.78 328.402,148.447 328.5,150.5C 327.833,150.5 327.167,150.5 326.5,150.5C 326.338,148.473 326.505,146.473 327,144.5C 327.671,143.748 328.504,143.414 329.5,143.5 Z"/></g>
<g><path style="opacity:1" fill="#79766a" d="M 347.5,142.5 C 348.1,143.9 349.1,144.9 350.5,145.5C 350.81,146.738 351.31,146.738 352,145.5C 352.464,146.094 352.631,146.761 352.5,147.5C 351.833,147.5 351.5,147.833 351.5,148.5C 350.849,149.091 350.182,149.757 349.5,150.5C 348.479,149.099 347.479,147.765 346.5,146.5C 346.833,145.167 347.167,143.833 347.5,142.5 Z"/></g>
<g><path style="opacity:1" fill="#676356" d="M 351.5,148.5 C 352.167,148.5 352.5,148.167 352.5,147.5C 352.631,146.761 352.464,146.094 352,145.5C 351.31,146.738 350.81,146.738 350.5,145.5C 350.5,144.5 350.5,143.5 350.5,142.5C 351.833,142.5 353.167,142.5 354.5,142.5C 354.813,145.247 354.48,147.914 353.5,150.5C 352.478,150.145 351.811,149.478 351.5,148.5 Z"/></g>
<g><path style="opacity:1" fill="#9a978c" d="M 345.5,142.5 C 345.198,145.059 345.532,147.393 346.5,149.5C 346.44,150.043 346.107,150.376 345.5,150.5C 344.2,147.691 344.2,145.024 345.5,142.5 Z"/></g>
<g><path style="opacity:1" fill="#87857b" d="M 321.5,143.5 C 322.338,143.842 322.672,144.508 322.5,145.5C 323.167,146.167 323.833,146.833 324.5,147.5C 323.532,149.607 323.198,151.941 323.5,154.5C 322.833,152.5 322.167,150.5 321.5,148.5C 321.5,146.833 321.5,145.167 321.5,143.5 Z"/></g>
<g><path style="opacity:1" fill="#55503f" d="M 330.5,145.5 C 331.906,145.973 332.573,146.973 332.5,148.5C 331.395,149.6 330.062,150.267 328.5,150.5C 328.402,148.447 329.069,146.78 330.5,145.5 Z"/></g>
<g><path style="opacity:1" fill="#726f66" d="M 285.5,143.5 C 285.549,146.099 286.549,148.266 288.5,150C 288,150.5 287.5,151 287,151.5C 285.569,149.636 284.403,147.636 283.5,145.5C 284.167,144.833 284.833,144.167 285.5,143.5 Z"/></g>
<g><path style="opacity:1" fill="#4b4633" d="M 203.5,152.5 C 203.5,152.833 203.5,153.167 203.5,153.5C 202.833,154.167 202.167,154.833 201.5,155.5C 201.5,152.833 201.5,150.167 201.5,147.5C 201.369,146.761 201.536,146.094 202,145.5C 202.44,147.866 202.94,150.199 203.5,152.5 Z"/></g>
<g><path style="opacity:1" fill="#544e3f" d="M 332.5,148.5 C 333.338,148.842 333.672,149.508 333.5,150.5C 332.566,151.568 332.232,152.901 332.5,154.5C 331.363,153.211 330.03,152.211 328.5,151.5C 328.5,151.167 328.5,150.833 328.5,150.5C 330.062,150.267 331.395,149.6 332.5,148.5 Z"/></g>
<g><path style="opacity:1" fill="#4f4839" d="M 201.5,147.5 C 201.5,150.167 201.5,152.833 201.5,155.5C 200.833,155.5 200.5,155.833 200.5,156.5C 199.833,156.5 199.5,156.167 199.5,155.5C 199.552,153.097 199.219,150.764 198.5,148.5C 199.609,148.443 200.609,148.11 201.5,147.5 Z"/></g>
<g><path style="opacity:1" fill="#585443" d="M 198.5,148.5 C 199.219,150.764 199.552,153.097 199.5,155.5C 198.5,156.833 197.5,156.833 196.5,155.5C 196.721,152.933 197.388,150.599 198.5,148.5 Z"/></g>
<g><path style="opacity:1" fill="#534e3e" d="M 328.5,151.5 C 330.03,152.211 331.363,153.211 332.5,154.5C 333.338,154.842 333.672,155.508 333.5,156.5C 333.5,157.167 333.5,157.833 333.5,158.5C 332.662,158.842 332.328,159.508 332.5,160.5C 331.833,162.5 331.167,164.5 330.5,166.5C 330.5,164.5 330.5,162.5 330.5,160.5C 331.449,157.315 330.782,154.315 328.5,151.5 Z"/></g>
<g><path style="opacity:1" fill="#585444" d="M 333.5,150.5 C 334.674,151.514 335.34,152.847 335.5,154.5C 334.833,155.167 334.167,155.833 333.5,156.5C 333.672,155.508 333.338,154.842 332.5,154.5C 332.232,152.901 332.566,151.568 333.5,150.5 Z"/></g>
<g><path style="opacity:1" fill="#645f51" d="M 326.5,150.5 C 327.167,150.5 327.833,150.5 328.5,150.5C 328.5,150.833 328.5,151.167 328.5,151.5C 330.782,154.315 331.449,157.315 330.5,160.5C 329.214,157.244 327.88,153.911 326.5,150.5 Z"/></g>
<g><path style="opacity:1" fill="#5e594a" d="M 335.5,154.5 C 337.505,159.512 337.839,164.512 336.5,169.5C 335.833,169.5 335.167,169.5 334.5,169.5C 334.806,166.615 334.473,163.948 333.5,161.5C 334.625,160.348 334.625,159.348 333.5,158.5C 333.5,157.833 333.5,157.167 333.5,156.5C 334.167,155.833 334.833,155.167 335.5,154.5 Z"/></g>
<g><path style="opacity:1" fill="#85847c" d="M 250.5,158.5 C 257.343,158.663 260.009,161.997 258.5,168.5C 256.616,159.694 252.449,158.361 246,164.5C 245.508,163.451 245.674,162.451 246.5,161.5C 247.901,160.479 249.235,159.479 250.5,158.5 Z"/></g>
<g><path style="opacity:1" fill="#95938b" d="M 321.5,148.5 C 322.167,150.5 322.833,152.5 323.5,154.5C 323.279,157.067 322.612,159.401 321.5,161.5C 321.5,160.833 321.167,160.5 320.5,160.5C 321.36,156.566 321.693,152.566 321.5,148.5 Z"/></g>
<g><path style="opacity:1" fill="#514a3c" d="M 333.5,158.5 C 334.625,159.348 334.625,160.348 333.5,161.5C 333.5,163.833 333.5,166.167 333.5,168.5C 333.167,168.5 332.833,168.5 332.5,168.5C 332.5,165.833 332.5,163.167 332.5,160.5C 332.328,159.508 332.662,158.842 333.5,158.5 Z"/></g>
<g><path style="opacity:1" fill="#5f5b4d" d="M 203.5,153.5 C 202.87,157.048 201.87,160.381 200.5,163.5C 199.583,161.338 199.583,159.005 200.5,156.5C 200.5,155.833 200.833,155.5 201.5,155.5C 202.167,154.833 202.833,154.167 203.5,153.5 Z"/></g>
<g><path style="opacity:1" fill="#595344" d="M 196.5,155.5 C 197.5,156.833 198.5,156.833 199.5,155.5C 199.5,156.167 199.833,156.5 200.5,156.5C 199.583,159.005 199.583,161.338 200.5,163.5C 200.59,166.152 199.924,168.485 198.5,170.5C 198.167,169.5 197.5,168.833 196.5,168.5C 196.737,167.209 196.404,166.209 195.5,165.5C 196.048,163.606 197.048,161.94 198.5,160.5C 197.675,159.614 196.675,159.281 195.5,159.5C 195.737,160.791 195.404,161.791 194.5,162.5C 194.41,159.848 195.076,157.515 196.5,155.5 Z"/></g>
<g><path style="opacity:1" fill="#585344" d="M 195.5,165.5 C 194.64,167.288 193.64,168.955 192.5,170.5C 192.565,167.572 193.232,164.905 194.5,162.5C 195.404,161.791 195.737,160.791 195.5,159.5C 196.675,159.281 197.675,159.614 198.5,160.5C 197.048,161.94 196.048,163.606 195.5,165.5 Z"/></g>
<g><path style="opacity:1" fill="#8b8b84" d="M 320.5,160.5 C 321.167,160.5 321.5,160.833 321.5,161.5C 320.868,165.431 319.201,168.765 316.5,171.5C 318.112,167.942 319.445,164.275 320.5,160.5 Z"/></g>
<g><path style="opacity:1" fill="#4f4a37" d="M 333.5,161.5 C 334.473,163.948 334.806,166.615 334.5,169.5C 334.657,170.873 334.49,172.207 334,173.5C 332.372,172.038 332.205,170.372 333.5,168.5C 333.5,166.167 333.5,163.833 333.5,161.5 Z"/></g>
<g><path style="opacity:1" fill="#474232" d="M 332.5,160.5 C 332.5,163.167 332.5,165.833 332.5,168.5C 331.732,169.263 331.232,170.263 331,171.5C 330.517,170.552 330.351,169.552 330.5,168.5C 330.5,167.833 330.5,167.167 330.5,166.5C 331.167,164.5 331.833,162.5 332.5,160.5 Z"/></g>
<g><path style="opacity:1" fill="#585345" d="M 196.5,168.5 C 197.5,168.833 198.167,169.5 198.5,170.5C 198.435,173.428 197.768,176.095 196.5,178.5C 196.662,176.473 196.495,174.473 196,172.5C 195.617,173.056 195.117,173.389 194.5,173.5C 195.167,171.833 195.833,170.167 196.5,168.5 Z"/></g>
<g><path style="opacity:1" fill="#565142" d="M 330.5,168.5 C 330.351,169.552 330.517,170.552 331,171.5C 331.232,170.263 331.732,169.263 332.5,168.5C 332.833,168.5 333.167,168.5 333.5,168.5C 332.205,170.372 332.372,172.038 334,173.5C 334.49,172.207 334.657,170.873 334.5,169.5C 335.167,169.5 335.833,169.5 336.5,169.5C 336.248,173.327 334.915,176.66 332.5,179.5C 331.89,178.609 331.557,177.609 331.5,176.5C 331.167,175.5 330.5,174.833 329.5,174.5C 329.5,173.833 329.5,173.167 329.5,172.5C 329.232,170.901 329.566,169.568 330.5,168.5 Z"/></g>
<g><path style="opacity:1" fill="#544e3e" d="M 195.5,165.5 C 196.404,166.209 196.737,167.209 196.5,168.5C 195.833,170.167 195.167,171.833 194.5,173.5C 194.672,174.492 194.338,175.158 193.5,175.5C 192.833,176.5 192.167,177.5 191.5,178.5C 191.167,178.5 190.833,178.5 190.5,178.5C 190.565,175.572 191.232,172.905 192.5,170.5C 193.64,168.955 194.64,167.288 195.5,165.5 Z"/></g>
<g><path style="opacity:1" fill="#bcbcba" d="M 316.5,171.5 C 316.539,172.756 316.039,173.756 315,174.5C 314.415,173.002 314.915,172.002 316.5,171.5 Z"/></g>
<g><path style="opacity:1" fill="#50493a" d="M 196.5,178.5 C 196.5,178.833 196.5,179.167 196.5,179.5C 194.468,178.952 193.468,177.619 193.5,175.5C 194.338,175.158 194.672,174.492 194.5,173.5C 195.117,173.389 195.617,173.056 196,172.5C 196.495,174.473 196.662,176.473 196.5,178.5 Z"/></g>
<g><path style="opacity:1" fill="#504b39" d="M 329.5,174.5 C 330.5,174.833 331.167,175.5 331.5,176.5C 330.659,178.812 329.659,181.145 328.5,183.5C 327.833,184.833 327.167,186.167 326.5,187.5C 325.448,187.649 324.448,187.483 323.5,187C 324.774,186.023 324.774,185.189 323.5,184.5C 323.328,183.508 323.662,182.842 324.5,182.5C 325.708,181.766 327.041,181.433 328.5,181.5C 328.448,179.097 328.781,176.764 329.5,174.5 Z"/></g>
<g><path style="opacity:1" fill="#524e3e" d="M 331.5,176.5 C 331.557,177.609 331.89,178.609 332.5,179.5C 332.008,181.819 331.008,183.819 329.5,185.5C 328.662,185.158 328.328,184.492 328.5,183.5C 329.659,181.145 330.659,178.812 331.5,176.5 Z"/></g>
<g><path style="opacity:1" fill="#5f5a4b" d="M 193.5,175.5 C 193.468,177.619 194.468,178.952 196.5,179.5C 196.768,181.099 196.434,182.432 195.5,183.5C 195.733,180.046 194.4,179.046 191.5,180.5C 191.5,179.833 191.5,179.167 191.5,178.5C 192.167,177.5 192.833,176.5 193.5,175.5 Z"/></g>
<g><path style="opacity:1" fill="#585345" d="M 329.5,172.5 C 329.5,173.167 329.5,173.833 329.5,174.5C 328.781,176.764 328.448,179.097 328.5,181.5C 327.041,181.433 325.708,181.766 324.5,182.5C 325.659,178.849 327.326,175.515 329.5,172.5 Z"/></g>
<g><path style="opacity:1" fill="#575343" d="M 190.5,178.5 C 190.833,178.5 191.167,178.5 191.5,178.5C 191.5,179.167 191.5,179.833 191.5,180.5C 191.396,182.703 190.73,184.703 189.5,186.5C 189.5,187.167 189.167,187.5 188.5,187.5C 188.676,184.273 189.343,181.273 190.5,178.5 Z"/></g>
<g><path style="opacity:1" fill="#575343" d="M 195.5,183.5 C 195.324,186.727 194.657,189.727 193.5,192.5C 192.833,192.5 192.5,192.167 192.5,191.5C 192.698,189.425 192.865,187.425 193,185.5C 191.883,186.949 191.216,188.616 191,190.5C 190.79,188.942 190.29,187.609 189.5,186.5C 190.73,184.703 191.396,182.703 191.5,180.5C 194.4,179.046 195.733,180.046 195.5,183.5 Z"/></g>
<g><path style="opacity:1" fill="#615b4e" d="M 328.5,183.5 C 328.328,184.492 328.662,185.158 329.5,185.5C 329.008,187.819 328.008,189.819 326.5,191.5C 326.5,190.167 326.5,188.833 326.5,187.5C 327.167,186.167 327.833,184.833 328.5,183.5 Z"/></g>
<g><path style="opacity:1" fill="#534d3d" d="M 323.5,184.5 C 324.774,185.189 324.774,186.023 323.5,187C 324.448,187.483 325.448,187.649 326.5,187.5C 326.5,188.833 326.5,190.167 326.5,191.5C 323.612,192.327 321.946,190.993 321.5,187.5C 321.427,185.973 322.094,184.973 323.5,184.5 Z"/></g>
<g><path style="opacity:1" fill="#565141" d="M 192.5,191.5 C 191.391,191.557 190.391,191.89 189.5,192.5C 189.633,189.075 188.967,188.742 187.5,191.5C 187.232,189.901 187.566,188.568 188.5,187.5C 189.167,187.5 189.5,187.167 189.5,186.5C 190.29,187.609 190.79,188.942 191,190.5C 191.216,188.616 191.883,186.949 193,185.5C 192.865,187.425 192.698,189.425 192.5,191.5 Z"/></g>
<g><path style="opacity:1" fill="#5b574a" d="M 321.5,187.5 C 321.946,190.993 323.612,192.327 326.5,191.5C 325.737,193.368 324.737,195.035 323.5,196.5C 323.631,193.633 322.297,191.967 319.5,191.5C 319.66,189.847 320.326,188.514 321.5,187.5 Z"/></g>
<g><path style="opacity:1" fill="#585342" d="M 192.5,191.5 C 192.5,192.167 192.833,192.5 193.5,192.5C 193.675,194.621 193.341,196.621 192.5,198.5C 191.732,199.263 191.232,200.263 191,201.5C 190.722,200.584 190.222,199.918 189.5,199.5C 189.768,197.901 189.434,196.568 188.5,195.5C 188.557,194.391 188.89,193.391 189.5,192.5C 190.391,191.89 191.391,191.557 192.5,191.5 Z"/></g>
<g><path style="opacity:1" fill="#5b5548" d="M 319.5,191.5 C 319.687,193.564 320.187,195.564 321,197.5C 321.342,195.381 322.175,195.047 323.5,196.5C 322.89,198.434 321.89,200.101 320.5,201.5C 320.598,199.447 319.931,197.78 318.5,196.5C 318.672,195.508 318.338,194.842 317.5,194.5C 317.932,193.29 318.599,192.29 319.5,191.5 Z"/></g>
<g><path style="opacity:1" fill="#4f4a38" d="M 319.5,191.5 C 322.297,191.967 323.631,193.633 323.5,196.5C 322.175,195.047 321.342,195.381 321,197.5C 320.187,195.564 319.687,193.564 319.5,191.5 Z"/></g>
<g><path style="opacity:1" fill="#5b5647" d="M 189.5,192.5 C 188.89,193.391 188.557,194.391 188.5,195.5C 188.634,197.292 188.301,198.958 187.5,200.5C 186.833,200.5 186.167,200.5 185.5,200.5C 185.676,197.273 186.343,194.273 187.5,191.5C 188.967,188.742 189.633,189.075 189.5,192.5 Z"/></g>
<g><path style="opacity:1" fill="#716d60" d="M 192.5,198.5 C 192.324,201.727 191.657,204.727 190.5,207.5C 190.768,205.901 190.434,204.568 189.5,203.5C 189.5,202.167 189.5,200.833 189.5,199.5C 190.222,199.918 190.722,200.584 191,201.5C 191.232,200.263 191.732,199.263 192.5,198.5 Z"/></g>
<g><path style="opacity:1" fill="#514b3a" d="M 188.5,195.5 C 189.434,196.568 189.768,197.901 189.5,199.5C 189.5,200.833 189.5,202.167 189.5,203.5C 189.167,203.5 188.833,203.5 188.5,203.5C 187.596,202.791 187.263,201.791 187.5,200.5C 188.301,198.958 188.634,197.292 188.5,195.5 Z"/></g>
<g><path style="opacity:1" fill="#595645" d="M 185.5,200.5 C 186.167,200.5 186.833,200.5 187.5,200.5C 187.263,201.791 187.596,202.791 188.5,203.5C 188.5,203.833 188.5,204.167 188.5,204.5C 187.504,204.586 186.671,204.252 186,203.5C 185.722,204.416 185.222,205.082 184.5,205.5C 184.366,203.708 184.699,202.042 185.5,200.5 Z"/></g>
<g><path style="opacity:1" fill="#85857a" d="M 229.5,207.5 C 229.5,206.833 229.167,206.5 228.5,206.5C 230.279,204.454 231.946,202.287 233.5,200C 240.659,198.022 240.992,198.522 234.5,201.5C 232.781,203.544 231.114,205.544 229.5,207.5 Z"/></g>
<g><path style="opacity:1" fill="#5a5647" d="M 317.5,194.5 C 318.338,194.842 318.672,195.508 318.5,196.5C 316.975,198.216 315.975,200.216 315.5,202.5C 314.609,203.11 313.609,203.443 312.5,203.5C 313.774,200.24 315.44,197.24 317.5,194.5 Z"/></g>
<g><path style="opacity:1" fill="#504a38" d="M 318.5,196.5 C 319.931,197.78 320.598,199.447 320.5,201.5C 319.391,201.557 318.391,201.89 317.5,202.5C 316.833,202.5 316.167,202.5 315.5,202.5C 315.975,200.216 316.975,198.216 318.5,196.5 Z"/></g>
<g><path style="opacity:1" fill="#4f4938" d="M 315.5,202.5 C 316.167,202.5 316.833,202.5 317.5,202.5C 316.85,204.435 316.517,206.435 316.5,208.5C 315.842,207.602 315.176,206.602 314.5,205.5C 313.808,206.025 313.308,206.692 313,207.5C 312.51,206.207 312.343,204.873 312.5,203.5C 313.609,203.443 314.609,203.11 315.5,202.5 Z"/></g>
<g><path style="opacity:1" fill="#625f51" d="M 320.5,201.5 C 319.416,204.004 318.083,206.337 316.5,208.5C 316.517,206.435 316.85,204.435 317.5,202.5C 318.391,201.89 319.391,201.557 320.5,201.5 Z"/></g>
<g><path style="opacity:1" fill="#585342" d="M 188.5,203.5 C 188.833,203.5 189.167,203.5 189.5,203.5C 190.434,204.568 190.768,205.901 190.5,207.5C 190.784,209.415 190.451,211.081 189.5,212.5C 188.542,210.698 187.875,208.698 187.5,206.5C 188.338,206.158 188.672,205.492 188.5,204.5C 188.5,204.167 188.5,203.833 188.5,203.5 Z"/></g>
<g><path style="opacity:1" fill="#4a4434" d="M 188.5,204.5 C 188.672,205.492 188.338,206.158 187.5,206.5C 185.787,207.635 185.12,209.302 185.5,211.5C 184.549,210.081 184.216,208.415 184.5,206.5C 184.5,206.167 184.5,205.833 184.5,205.5C 185.222,205.082 185.722,204.416 186,203.5C 186.671,204.252 187.504,204.586 188.5,204.5 Z"/></g>
<g><path style="opacity:1" fill="#595445" d="M 187.5,206.5 C 187.875,208.698 188.542,210.698 189.5,212.5C 189.795,214.735 189.461,216.735 188.5,218.5C 188.66,216.801 188.494,215.134 188,213.5C 187.617,214.056 187.117,214.389 186.5,214.5C 185.89,213.609 185.557,212.609 185.5,211.5C 185.12,209.302 185.787,207.635 187.5,206.5 Z"/></g>
<g><path style="opacity:1" fill="#534d3d" d="M 312.5,203.5 C 312.343,204.873 312.51,206.207 313,207.5C 313.308,206.692 313.808,206.025 314.5,205.5C 315.176,206.602 315.842,207.602 316.5,208.5C 316.068,209.71 315.401,210.71 314.5,211.5C 311.438,213.13 309.771,212.13 309.5,208.5C 310.11,206.566 311.11,204.899 312.5,203.5 Z"/></g>
<g><path style="opacity:1" fill="#78776c" d="M 228.5,206.5 C 229.167,206.5 229.5,206.833 229.5,207.5C 227.735,210.709 225.735,213.709 223.5,216.5C 223.5,215.833 223.167,215.5 222.5,215.5C 224.5,212.5 226.5,209.5 228.5,206.5 Z"/></g>
<g><path style="opacity:1" fill="#666153" d="M 184.5,206.5 C 184.216,208.415 184.549,210.081 185.5,211.5C 185.557,212.609 185.89,213.609 186.5,214.5C 185.504,214.586 184.671,214.252 184,213.5C 183.768,214.737 183.268,215.737 182.5,216.5C 182.753,212.96 183.419,209.627 184.5,206.5 Z"/></g>
<g><path style="opacity:1" fill="#9b9a93" d="M 240.5,222.5 C 240.5,221.833 240.167,221.5 239.5,221.5C 241.619,215.019 242.786,208.352 243,201.5C 243.991,202.43 244.491,203.596 244.5,205C 243.719,211.09 242.386,216.923 240.5,222.5 Z"/></g>
<g><path style="opacity:1" fill="#5d594a" d="M 309.5,208.5 C 309.771,212.13 311.438,213.13 314.5,211.5C 313,215.173 311,218.506 308.5,221.5C 308.5,220.5 308.5,219.5 308.5,218.5C 311.378,215.668 310.711,214.001 306.5,213.5C 306.75,211.326 307.75,209.659 309.5,208.5 Z"/></g>
<g><path style="opacity:1" fill="#514c3c" d="M 306.5,213.5 C 310.711,214.001 311.378,215.668 308.5,218.5C 307.167,219.167 305.833,219.833 304.5,220.5C 304.5,219.167 304.5,217.833 304.5,216.5C 304.427,214.973 305.094,213.973 306.5,213.5 Z"/></g>
<g><path style="opacity:1" fill="#655f51" d="M 188.5,218.5 C 188.795,220.735 188.461,222.735 187.5,224.5C 187.946,221.99 187.28,219.99 185.5,218.5C 186.525,214.582 187.525,214.582 188.5,218.5 Z"/></g>
<g><path style="opacity:1" fill="#b2b2af" d="M 287.5,216.5 C 288.713,217.497 288.546,218.497 287,219.5C 286.53,218.423 286.697,217.423 287.5,216.5 Z"/></g>
<g><path style="opacity:1" fill="#4d4735" d="M 186.5,214.5 C 187.117,214.389 187.617,214.056 188,213.5C 188.494,215.134 188.66,216.801 188.5,218.5C 187.525,214.582 186.525,214.582 185.5,218.5C 185.5,219.167 185.5,219.833 185.5,220.5C 184.662,220.842 184.328,221.508 184.5,222.5C 182.744,221.448 182.077,219.781 182.5,217.5C 182.5,217.167 182.5,216.833 182.5,216.5C 183.268,215.737 183.768,214.737 184,213.5C 184.671,214.252 185.504,214.586 186.5,214.5 Z"/></g>
<g><path style="opacity:1" fill="#555040" d="M 308.5,218.5 C 308.5,219.5 308.5,220.5 308.5,221.5C 308.068,222.71 307.401,223.71 306.5,224.5C 306.473,222.801 305.806,221.467 304.5,220.5C 305.833,219.833 307.167,219.167 308.5,218.5 Z"/></g>
<g><path style="opacity:1" fill="#706e65" d="M 222.5,215.5 C 223.167,215.5 223.5,215.833 223.5,216.5C 222.525,218.795 221.192,220.795 219.5,222.5C 219.167,222.5 218.833,222.5 218.5,222.5C 219.569,220.031 220.902,217.698 222.5,215.5 Z"/></g>
<g><path style="opacity:1" fill="#a4a5a0" d="M 283.5,223.5 C 283.461,222.244 283.961,221.244 285,220.5C 285.585,221.998 285.085,222.998 283.5,223.5 Z"/></g>
<g><path style="opacity:1" fill="#5f5b4f" d="M 185.5,218.5 C 187.28,219.99 187.946,221.99 187.5,224.5C 187.802,227.059 187.468,229.393 186.5,231.5C 186.5,229.5 186.5,227.5 186.5,225.5C 186.371,223.784 186.038,222.117 185.5,220.5C 185.5,219.833 185.5,219.167 185.5,218.5 Z"/></g>
<g><path style="opacity:1" fill="#595545" d="M 304.5,216.5 C 304.5,217.833 304.5,219.167 304.5,220.5C 305.806,221.467 306.473,222.801 306.5,224.5C 305.331,227.511 303.664,230.178 301.5,232.5C 301.5,231.5 301.5,230.5 301.5,229.5C 301.721,228.265 302.388,227.265 303.5,226.5C 302.923,224.45 301.59,223.45 299.5,223.5C 300.934,220.953 302.6,218.619 304.5,216.5 Z"/></g>
<g><path style="opacity:1" fill="#767469" d="M 239.5,221.5 C 240.167,221.5 240.5,221.833 240.5,222.5C 240.435,225.428 239.768,228.095 238.5,230.5C 238.672,229.508 238.338,228.842 237.5,228.5C 238.167,226.167 238.833,223.833 239.5,221.5 Z"/></g>
<g><path style="opacity:1" fill="#514b3d" d="M 299.5,223.5 C 301.59,223.45 302.923,224.45 303.5,226.5C 302.388,227.265 301.721,228.265 301.5,229.5C 299.235,229.559 298.902,228.726 300.5,227C 300.164,225.97 299.497,225.47 298.5,225.5C 298.833,224.833 299.167,224.167 299.5,223.5 Z"/></g>
<g><path style="opacity:1" fill="#514b38" d="M 185.5,220.5 C 186.038,222.117 186.371,223.784 186.5,225.5C 185.698,226.952 185.198,228.618 185,230.5C 184.503,228.19 184.337,225.857 184.5,223.5C 184.5,223.167 184.5,222.833 184.5,222.5C 184.328,221.508 184.662,220.842 185.5,220.5 Z"/></g>
<g><path style="opacity:1" fill="#6a695c" d="M 218.5,222.5 C 218.833,222.5 219.167,222.5 219.5,222.5C 218.189,225.135 216.522,227.469 214.5,229.5C 214.167,229.5 213.833,229.5 213.5,229.5C 214.811,226.865 216.478,224.531 218.5,222.5 Z"/></g>
<g><path style="opacity:1" fill="#5b5748" d="M 182.5,217.5 C 182.077,219.781 182.744,221.448 184.5,222.5C 184.5,222.833 184.5,223.167 184.5,223.5C 183.167,225.833 181.833,228.167 180.5,230.5C 180.624,225.951 181.291,221.618 182.5,217.5 Z"/></g>
<g><path style="opacity:1" fill="#514c3c" d="M 298.5,225.5 C 299.497,225.47 300.164,225.97 300.5,227C 298.902,228.726 299.235,229.559 301.5,229.5C 301.5,230.5 301.5,231.5 301.5,232.5C 300.778,232.082 300.278,231.416 300,230.5C 299.215,232.249 298.382,233.916 297.5,235.5C 296.691,233.987 296.524,232.32 297,230.5C 296.051,232.093 294.885,233.426 293.5,234.5C 293.167,234.5 292.833,234.5 292.5,234.5C 294.265,231.291 296.265,228.291 298.5,225.5 Z"/></g>
<g><path style="opacity:1" fill="#544f3f" d="M 184.5,223.5 C 184.337,225.857 184.503,228.19 185,230.5C 185.198,228.618 185.698,226.952 186.5,225.5C 186.5,227.5 186.5,229.5 186.5,231.5C 186.795,233.735 186.461,235.735 185.5,237.5C 185.768,235.901 185.434,234.568 184.5,233.5C 183.938,231.335 183.271,231.668 182.5,234.5C 181.883,234.611 181.383,234.944 181,235.5C 180.506,233.866 180.34,232.199 180.5,230.5C 181.833,228.167 183.167,225.833 184.5,223.5 Z"/></g>
<g><path style="opacity:1" fill="#514c3a" d="M 184.5,233.5 C 184.167,236.167 183.833,238.833 183.5,241.5C 182.662,241.158 182.328,240.492 182.5,239.5C 182.5,237.833 182.5,236.167 182.5,234.5C 183.271,231.668 183.938,231.335 184.5,233.5 Z"/></g>
<g><path style="opacity:1" fill="#6e695e" d="M 213.5,229.5 C 213.833,229.5 214.167,229.5 214.5,229.5C 213.528,232.437 212.195,235.103 210.5,237.5C 210.672,236.508 210.338,235.842 209.5,235.5C 210.449,233.223 211.782,231.223 213.5,229.5 Z"/></g>
<g><path style="opacity:1" fill="#615c4d" d="M 237.5,228.5 C 238.338,228.842 238.672,229.508 238.5,230.5C 238.768,232.099 238.434,233.432 237.5,234.5C 237.5,233.167 236.833,232.5 235.5,232.5C 235.66,230.847 236.326,229.514 237.5,228.5 Z"/></g>
<g><path style="opacity:1" fill="#989791" d="M 283.5,223.5 C 281.554,227.439 279.221,231.106 276.5,234.5C 276.5,234.167 276.5,233.833 276.5,233.5C 278.062,229.608 280.395,226.275 283.5,223.5 Z"/></g>
<g><path style="opacity:1" fill="#504a36" d="M 297.5,235.5 C 297.5,236.167 297.5,236.833 297.5,237.5C 295.545,237.201 294.211,236.201 293.5,234.5C 294.885,233.426 296.051,232.093 297,230.5C 296.524,232.32 296.691,233.987 297.5,235.5 Z"/></g>
<g><path style="opacity:1" fill="#5f594c" d="M 180.5,230.5 C 180.34,232.199 180.506,233.866 181,235.5C 181.383,234.944 181.883,234.611 182.5,234.5C 182.5,236.167 182.5,237.833 182.5,239.5C 181.833,238.5 181.167,237.5 180.5,236.5C 180.167,236.5 179.833,236.5 179.5,236.5C 179.205,234.265 179.539,232.265 180.5,230.5 Z"/></g>
<g><path style="opacity:1" fill="#5f5a4a" d="M 301.5,232.5 C 300.525,234.795 299.192,236.795 297.5,238.5C 297.5,238.167 297.5,237.833 297.5,237.5C 297.5,236.833 297.5,236.167 297.5,235.5C 298.382,233.916 299.215,232.249 300,230.5C 300.278,231.416 300.778,232.082 301.5,232.5 Z"/></g>
<g><path style="opacity:1" fill="#534f3e" d="M 235.5,232.5 C 236.833,232.5 237.5,233.167 237.5,234.5C 237.5,234.833 237.5,235.167 237.5,235.5C 236.778,235.918 236.278,236.584 236,237.5C 234.893,236.288 234.393,236.621 234.5,238.5C 233.609,239.11 232.609,239.443 231.5,239.5C 231.167,239.5 230.833,239.5 230.5,239.5C 231.811,236.865 233.478,234.531 235.5,232.5 Z"/></g>
<g><path style="opacity:1" fill="#86857c" d="M 276.5,233.5 C 276.5,233.833 276.5,234.167 276.5,234.5C 275.066,237.047 273.4,239.381 271.5,241.5C 271.5,240.833 271.167,240.5 270.5,240.5C 272.273,237.94 274.273,235.607 276.5,233.5 Z"/></g>
<g><path style="opacity:1" fill="#5a5545" d="M 292.5,234.5 C 292.833,234.5 293.167,234.5 293.5,234.5C 294.211,236.201 295.545,237.201 297.5,237.5C 297.5,237.833 297.5,238.167 297.5,238.5C 297.068,239.71 296.401,240.71 295.5,241.5C 294.713,239.896 293.38,239.229 291.5,239.5C 290.391,239.557 289.391,239.89 288.5,240.5C 289.34,238.147 290.674,236.147 292.5,234.5 Z"/></g>
<g><path style="opacity:1" fill="#433d2e" d="M 184.5,233.5 C 185.434,234.568 185.768,235.901 185.5,237.5C 185.5,237.833 185.5,238.167 185.5,238.5C 184.539,240.265 184.205,242.265 184.5,244.5C 183.596,243.791 183.263,242.791 183.5,241.5C 183.833,238.833 184.167,236.167 184.5,233.5 Z"/></g>
<g><path style="opacity:1" fill="#6a6557" d="M 209.5,235.5 C 210.338,235.842 210.672,236.508 210.5,237.5C 210.5,240.167 210.5,242.833 210.5,245.5C 209.835,243.631 209.169,241.631 208.5,239.5C 207.583,240.127 206.583,240.461 205.5,240.5C 206.604,238.611 207.937,236.945 209.5,235.5 Z"/></g>
<g><path style="opacity:1" fill="#595447" d="M 291.5,239.5 C 293.38,239.229 294.713,239.896 295.5,241.5C 294.396,243.389 293.063,245.055 291.5,246.5C 291.5,245.833 291.5,245.167 291.5,244.5C 292.562,242.901 292.562,241.234 291.5,239.5 Z"/></g>
<g><path style="opacity:1" fill="#595446" d="M 179.5,236.5 C 179.833,236.5 180.167,236.5 180.5,236.5C 181.105,240.018 181.105,243.685 180.5,247.5C 180.167,247.5 179.833,247.5 179.5,247.5C 178.167,243.833 178.167,240.167 179.5,236.5 Z"/></g>
<g><path style="opacity:1" fill="#504a39" d="M 180.5,236.5 C 181.167,237.5 181.833,238.5 182.5,239.5C 182.328,240.492 182.662,241.158 183.5,241.5C 183.263,242.791 183.596,243.791 184.5,244.5C 184.227,246.451 184.893,247.951 186.5,249C 186.272,249.399 185.938,249.565 185.5,249.5C 183.678,249.169 182.011,248.502 180.5,247.5C 181.105,243.685 181.105,240.018 180.5,236.5 Z"/></g>
<g><path style="opacity:1" fill="#4d4735" d="M 234.5,238.5 C 233.783,240.551 233.783,243.551 234.5,247.5C 233.833,247.5 233.167,247.5 232.5,247.5C 232.802,244.941 232.468,242.607 231.5,240.5C 231.5,240.167 231.5,239.833 231.5,239.5C 232.609,239.443 233.609,239.11 234.5,238.5 Z"/></g>
<g><path style="opacity:1" fill="#534e3e" d="M 291.5,239.5 C 292.562,241.234 292.562,242.901 291.5,244.5C 289.5,243.167 287.5,243.167 285.5,244.5C 285.738,242.596 286.738,241.262 288.5,240.5C 289.391,239.89 290.391,239.557 291.5,239.5 Z"/></g>
<g><path style="opacity:1" fill="#4f4a39" d="M 210.5,245.5 C 210.5,246.167 210.5,246.833 210.5,247.5C 209.833,247.5 209.167,247.5 208.5,247.5C 208.167,247.5 207.833,247.5 207.5,247.5C 206.527,245.851 205.527,244.184 204.5,242.5C 204.833,241.833 205.167,241.167 205.5,240.5C 206.583,240.461 207.583,240.127 208.5,239.5C 209.169,241.631 209.835,243.631 210.5,245.5 Z"/></g>
<g><path style="opacity:1" fill="#504c3b" d="M 230.5,239.5 C 230.833,239.5 231.167,239.5 231.5,239.5C 231.5,239.833 231.5,240.167 231.5,240.5C 231.509,242.308 231.009,243.975 230,245.5C 229.221,242.903 228.721,242.903 228.5,245.5C 227.662,245.158 227.328,244.492 227.5,243.5C 228.026,241.77 229.026,240.436 230.5,239.5 Z"/></g>
<g><path style="opacity:1" fill="#676354" d="M 237.5,235.5 C 236.863,240.035 235.863,244.368 234.5,248.5C 234.5,248.167 234.5,247.833 234.5,247.5C 233.783,243.551 233.783,240.551 234.5,238.5C 234.393,236.621 234.893,236.288 236,237.5C 236.278,236.584 236.778,235.918 237.5,235.5 Z"/></g>
<g><path style="opacity:1" fill="#565243" d="M 204.5,242.5 C 205.527,244.184 206.527,245.851 207.5,247.5C 207.44,248.043 207.107,248.376 206.5,248.5C 205.148,247.476 203.815,246.476 202.5,245.5C 202.427,243.973 203.094,242.973 204.5,242.5 Z"/></g>
<g><path style="opacity:1" fill="#4f4938" d="M 291.5,244.5 C 291.5,245.167 291.5,245.833 291.5,246.5C 291.5,247.167 291.167,247.5 290.5,247.5C 290.167,247.5 289.833,247.5 289.5,247.5C 288.41,246.143 287.076,245.143 285.5,244.5C 287.5,243.167 289.5,243.167 291.5,244.5 Z"/></g>
<g><path style="opacity:1" fill="#7b7a71" d="M 270.5,240.5 C 271.167,240.5 271.5,240.833 271.5,241.5C 269.646,245.221 267.313,248.554 264.5,251.5C 264.5,250.833 264.167,250.5 263.5,250.5C 265.833,247.167 268.167,243.833 270.5,240.5 Z"/></g>
<g><path style="opacity:1" fill="#554f41" d="M 227.5,243.5 C 227.328,244.492 227.662,245.158 228.5,245.5C 228.5,246.833 228.5,248.167 228.5,249.5C 226.621,248.659 224.621,248.325 222.5,248.5C 223.833,246.5 225.5,244.833 227.5,243.5 Z"/></g>
<g><path style="opacity:1" fill="#544e3e" d="M 285.5,244.5 C 287.076,245.143 288.41,246.143 289.5,247.5C 288.292,248.234 286.959,248.567 285.5,248.5C 284.5,248.5 283.5,248.5 282.5,248.5C 283.026,246.77 284.026,245.436 285.5,244.5 Z"/></g>
<g><path style="opacity:1" fill="#686457" d="M 185.5,238.5 C 184.742,243.271 186.075,247.271 189.5,250.5C 187.901,250.768 186.568,250.434 185.5,249.5C 185.938,249.565 186.272,249.399 186.5,249C 184.893,247.951 184.227,246.451 184.5,244.5C 184.205,242.265 184.539,240.265 185.5,238.5 Z"/></g>
<g><path style="opacity:1" fill="#5c5848" d="M 202.5,245.5 C 203.079,248.331 204.412,250.664 206.5,252.5C 204.5,253.5 202.5,254.5 200.5,255.5C 200.5,254.5 200.5,253.5 200.5,252.5C 201.552,252.649 202.552,252.483 203.5,252C 202.897,249.929 201.564,248.762 199.5,248.5C 200.167,247.167 201.167,246.167 202.5,245.5 Z"/></g>
<g><path style="opacity:1" fill="#504b39" d="M 222.5,248.5 C 224.621,248.325 226.621,248.659 228.5,249.5C 228.5,250.167 228.5,250.833 228.5,251.5C 224.787,248.58 223.12,249.247 223.5,253.5C 222.5,253.5 221.5,253.5 220.5,253.5C 219.89,252.609 219.557,251.609 219.5,250.5C 220.29,249.599 221.29,248.932 222.5,248.5 Z"/></g>
<g><path style="opacity:1" fill="#504a39" d="M 231.5,240.5 C 232.468,242.607 232.802,244.941 232.5,247.5C 232.163,250.656 232.163,253.989 232.5,257.5C 232.167,257.5 231.833,257.5 231.5,257.5C 231.598,255.447 230.931,253.78 229.5,252.5C 228.833,252.5 228.5,252.167 228.5,251.5C 228.5,250.833 228.5,250.167 228.5,249.5C 228.5,248.167 228.5,246.833 228.5,245.5C 228.721,242.903 229.221,242.903 230,245.5C 231.009,243.975 231.509,242.308 231.5,240.5 Z"/></g>
<g><path style="opacity:1" fill="#5c5749" d="M 199.5,248.5 C 201.564,248.762 202.897,249.929 203.5,252C 202.552,252.483 201.552,252.649 200.5,252.5C 200.12,251.867 199.787,251.2 199.5,250.5C 198.914,250.709 198.414,251.043 198,251.5C 197.22,253.387 197.387,255.054 198.5,256.5C 197.054,257.94 195.221,258.607 193,258.5C 191.615,258.486 190.449,258.152 189.5,257.5C 191.604,257.799 193.604,257.466 195.5,256.5C 194.359,255.575 194.359,254.741 195.5,254C 194.142,253.066 192.808,252.232 191.5,251.5C 194.504,251.278 197.171,250.278 199.5,248.5 Z"/></g>
<g><path style="opacity:1" fill="#504b3c" d="M 202.5,245.5 C 203.815,246.476 205.148,247.476 206.5,248.5C 207.107,248.376 207.44,248.043 207.5,247.5C 207.833,247.5 208.167,247.5 208.5,247.5C 208.714,249.144 208.38,250.644 207.5,252C 208.823,252.816 209.489,253.983 209.5,255.5C 207.856,255.19 206.856,254.19 206.5,252.5C 204.412,250.664 203.079,248.331 202.5,245.5 Z"/></g>
<g><path style="opacity:1" fill="#6b675b" d="M 232.5,247.5 C 233.167,247.5 233.833,247.5 234.5,247.5C 234.5,247.833 234.5,248.167 234.5,248.5C 234.376,253.049 233.709,257.382 232.5,261.5C 232.5,260.167 232.5,258.833 232.5,257.5C 232.163,253.989 232.163,250.656 232.5,247.5 Z"/></g>
<g><path style="opacity:1" fill="#585444" d="M 289.5,247.5 C 289.833,247.5 290.167,247.5 290.5,247.5C 289.567,250.37 287.9,252.704 285.5,254.5C 285.065,252.297 285.065,250.297 285.5,248.5C 286.959,248.567 288.292,248.234 289.5,247.5 Z"/></g>
<g><path style="opacity:1" fill="#544e3e" d="M 179.5,247.5 C 179.833,247.5 180.167,247.5 180.5,247.5C 182.011,248.502 183.678,249.169 185.5,249.5C 186.568,250.434 187.901,250.768 189.5,250.5C 190.167,250.5 190.5,250.833 190.5,251.5C 189.957,251.56 189.624,251.893 189.5,252.5C 190.167,253.5 190.833,254.5 191.5,255.5C 190.757,256.182 190.091,256.849 189.5,257.5C 184.5,255.833 181.167,252.5 179.5,247.5 Z"/></g>
<g><path style="opacity:1" fill="#585345" d="M 228.5,251.5 C 228.5,252.167 228.833,252.5 229.5,252.5C 229.672,253.492 229.338,254.158 228.5,254.5C 227.833,256.5 227.167,258.5 226.5,260.5C 226.799,258.396 226.466,256.396 225.5,254.5C 224.15,255.95 222.484,256.617 220.5,256.5C 220.167,255.833 219.833,255.167 219.5,254.5C 220.167,254.5 220.5,254.167 220.5,253.5C 221.5,253.5 222.5,253.5 223.5,253.5C 223.12,249.247 224.787,248.58 228.5,251.5 Z"/></g>
<g><path style="opacity:1" fill="#4a4534" d="M 212.5,250.5 C 212.833,250.5 213.167,250.5 213.5,250.5C 214.952,251.302 216.618,251.802 218.5,252C 216.155,252.236 214.155,253.07 212.5,254.5C 211.77,253.288 210.77,252.288 209.5,251.5C 210.325,250.614 211.325,250.281 212.5,250.5 Z"/></g>
<g><path style="opacity:1" fill="#504a3a" d="M 282.5,248.5 C 283.5,248.5 284.5,248.5 285.5,248.5C 285.065,250.297 285.065,252.297 285.5,254.5C 283.388,253.725 281.388,253.725 279.5,254.5C 279.5,253.833 279.5,253.167 279.5,252.5C 280.026,250.77 281.026,249.436 282.5,248.5 Z"/></g>
<g><path style="opacity:1" fill="#524d3c" d="M 200.5,252.5 C 200.5,253.5 200.5,254.5 200.5,255.5C 200.158,256.338 199.492,256.672 198.5,256.5C 197.387,255.054 197.22,253.387 198,251.5C 198.414,251.043 198.914,250.709 199.5,250.5C 199.787,251.2 200.12,251.867 200.5,252.5 Z"/></g>
<g><path style="opacity:1" fill="#534d3e" d="M 208.5,247.5 C 209.167,247.5 209.833,247.5 210.5,247.5C 211.401,248.29 212.068,249.29 212.5,250.5C 211.325,250.281 210.325,250.614 209.5,251.5C 210.77,252.288 211.77,253.288 212.5,254.5C 211.833,254.5 211.5,254.833 211.5,255.5C 211.5,255.833 211.5,256.167 211.5,256.5C 210.508,256.672 209.842,256.338 209.5,255.5C 209.489,253.983 208.823,252.816 207.5,252C 208.38,250.644 208.714,249.144 208.5,247.5 Z"/></g>
<g><path style="opacity:1" fill="#5c5747" d="M 213.5,250.5 C 215.5,250.5 217.5,250.5 219.5,250.5C 219.557,251.609 219.89,252.609 220.5,253.5C 220.5,254.167 220.167,254.5 219.5,254.5C 219.44,253.957 219.107,253.624 218.5,253.5C 216.49,255.171 214.157,255.838 211.5,255.5C 211.5,254.833 211.833,254.5 212.5,254.5C 214.155,253.07 216.155,252.236 218.5,252C 216.618,251.802 214.952,251.302 213.5,250.5 Z"/></g>
<g><path style="opacity:1" fill="#6b6a5d" d="M 263.5,250.5 C 264.167,250.5 264.5,250.833 264.5,251.5C 262.646,255.221 260.313,258.554 257.5,261.5C 257.5,260.833 257.5,260.167 257.5,259.5C 259.5,256.5 261.5,253.5 263.5,250.5 Z"/></g>
<g><path style="opacity:1" fill="#5c564a" d="M 285.5,254.5 C 285.573,256.027 284.906,257.027 283.5,257.5C 283.196,255.204 282.196,254.871 280.5,256.5C 280.5,255.833 280.167,255.5 279.5,255.5C 279.5,255.167 279.5,254.833 279.5,254.5C 281.388,253.725 283.388,253.725 285.5,254.5 Z"/></g>
<g><path style="opacity:1" fill="#4d4837" d="M 190.5,251.5 C 190.833,251.5 191.167,251.5 191.5,251.5C 192.808,252.232 194.142,253.066 195.5,254C 194.359,254.741 194.359,255.575 195.5,256.5C 193.604,257.466 191.604,257.799 189.5,257.5C 190.091,256.849 190.757,256.182 191.5,255.5C 190.833,254.5 190.167,253.5 189.5,252.5C 189.624,251.893 189.957,251.56 190.5,251.5 Z"/></g>
<g><path style="opacity:1" fill="#544f3f" d="M 219.5,254.5 C 219.833,255.167 220.167,255.833 220.5,256.5C 217.5,257.833 214.5,257.833 211.5,256.5C 211.5,256.167 211.5,255.833 211.5,255.5C 214.157,255.838 216.49,255.171 218.5,253.5C 219.107,253.624 219.44,253.957 219.5,254.5 Z"/></g>
<g><path style="opacity:1" fill="#514b3b" d="M 229.5,252.5 C 230.931,253.78 231.598,255.447 231.5,257.5C 231.657,258.873 231.49,260.207 231,261.5C 230.333,253.5 229.667,253.5 229,261.5C 228.503,259.19 228.337,256.857 228.5,254.5C 229.338,254.158 229.672,253.492 229.5,252.5 Z"/></g>
<g><path style="opacity:1" fill="#595748" d="M 279.5,252.5 C 279.5,253.167 279.5,253.833 279.5,254.5C 279.5,254.833 279.5,255.167 279.5,255.5C 278.764,257.229 277.43,258.229 275.5,258.5C 275.167,258.5 274.833,258.5 274.5,258.5C 276.177,256.46 277.844,254.46 279.5,252.5 Z"/></g>
<g><path style="opacity:1" fill="#595446" d="M 283.5,257.5 C 281.853,260.473 279.853,263.14 277.5,265.5C 277.371,263.784 277.038,262.117 276.5,260.5C 276.435,260.062 276.601,259.728 277,259.5C 277.308,260.308 277.808,260.975 278.5,261.5C 279.17,259.709 279.837,258.042 280.5,256.5C 282.196,254.871 283.196,255.204 283.5,257.5 Z"/></g>
<g><path style="opacity:1" fill="#585444" d="M 228.5,254.5 C 228.337,256.857 228.503,259.19 229,261.5C 229.667,253.5 230.333,253.5 231,261.5C 231.49,260.207 231.657,258.873 231.5,257.5C 231.833,257.5 232.167,257.5 232.5,257.5C 232.5,258.833 232.5,260.167 232.5,261.5C 232.5,261.833 232.5,262.167 232.5,262.5C 232.167,262.5 231.833,262.5 231.5,262.5C 230.222,262.782 229.222,263.449 228.5,264.5C 227.833,266.833 227.167,269.167 226.5,271.5C 225.167,267.833 225.167,264.167 226.5,260.5C 227.167,258.5 227.833,256.5 228.5,254.5 Z"/></g>
<g><path style="opacity:1" fill="#504b38" d="M 279.5,255.5 C 280.167,255.5 280.5,255.833 280.5,256.5C 279.837,258.042 279.17,259.709 278.5,261.5C 277.808,260.975 277.308,260.308 277,259.5C 276.601,259.728 276.435,260.062 276.5,260.5C 275.662,260.158 275.328,259.492 275.5,258.5C 277.43,258.229 278.764,257.229 279.5,255.5 Z"/></g>
<g><path style="opacity:1" fill="#524c3d" d="M 274.5,258.5 C 274.833,258.5 275.167,258.5 275.5,258.5C 275.328,259.492 275.662,260.158 276.5,260.5C 277.038,262.117 277.371,263.784 277.5,265.5C 276.5,264.833 275.5,264.167 274.5,263.5C 274.5,262.167 273.833,261.5 272.5,261.5C 272.932,260.29 273.599,259.29 274.5,258.5 Z"/></g>
<g><path style="opacity:1" fill="#636052" d="M 257.5,259.5 C 257.5,260.167 257.5,260.833 257.5,261.5C 255.733,263.938 254.399,266.605 253.5,269.5C 252.833,269.167 252.167,268.833 251.5,268.5C 252.759,264.975 254.759,261.975 257.5,259.5 Z"/></g>
<g><path style="opacity:1" fill="#575143" d="M 274.5,263.5 C 275.5,264.167 276.5,264.833 277.5,265.5C 276.833,266.833 275.833,267.833 274.5,268.5C 273.89,267.609 273.557,266.609 273.5,265.5C 273.328,264.508 273.662,263.842 274.5,263.5 Z"/></g>
<g><path style="opacity:1" fill="#4f4838" d="M 231.5,262.5 C 231.808,264.924 231.474,267.257 230.5,269.5C 229.818,268.757 229.151,268.091 228.5,267.5C 228.5,266.5 228.5,265.5 228.5,264.5C 229.222,263.449 230.222,262.782 231.5,262.5 Z"/></g>
<g><path style="opacity:1" fill="#55513f" d="M 228.5,264.5 C 228.5,265.5 228.5,266.5 228.5,267.5C 228.33,268.822 228.663,269.989 229.5,271C 227.963,272.11 227.297,273.61 227.5,275.5C 226.566,274.432 226.232,273.099 226.5,271.5C 227.167,269.167 227.833,266.833 228.5,264.5 Z"/></g>
<g><path style="opacity:1" fill="#524d3d" d="M 272.5,261.5 C 273.833,261.5 274.5,262.167 274.5,263.5C 273.662,263.842 273.328,264.508 273.5,265.5C 271.787,266.635 271.12,268.302 271.5,270.5C 270.512,269.205 269.512,267.872 268.5,266.5C 269.124,264.246 270.457,262.579 272.5,261.5 Z"/></g>
<g><path style="opacity:1" fill="#595344" d="M 273.5,265.5 C 273.557,266.609 273.89,267.609 274.5,268.5C 274.262,270.404 273.262,271.738 271.5,272.5C 271.5,272.167 271.5,271.833 271.5,271.5C 271.5,271.167 271.5,270.833 271.5,270.5C 271.12,268.302 271.787,266.635 273.5,265.5 Z"/></g>
<g><path style="opacity:1" fill="#504b3b" d="M 231.5,262.5 C 231.833,262.5 232.167,262.5 232.5,262.5C 232.5,265.167 232.5,267.833 232.5,270.5C 232.5,270.833 232.5,271.167 232.5,271.5C 230.824,272.183 230.157,273.517 230.5,275.5C 229.5,275.5 228.5,275.5 227.5,275.5C 227.297,273.61 227.963,272.11 229.5,271C 228.663,269.989 228.33,268.822 228.5,267.5C 229.151,268.091 229.818,268.757 230.5,269.5C 231.474,267.257 231.808,264.924 231.5,262.5 Z"/></g>
<g><path style="opacity:1" fill="#5a5445" d="M 268.5,266.5 C 269.512,267.872 270.512,269.205 271.5,270.5C 271.5,270.833 271.5,271.167 271.5,271.5C 269.549,271.773 268.049,271.107 267,269.5C 266.184,270.823 265.017,271.489 263.5,271.5C 264.833,269.5 266.5,267.833 268.5,266.5 Z"/></g>
<g><path style="opacity:1" fill="#4f4a3a" d="M 251.5,268.5 C 252.167,268.833 252.833,269.167 253.5,269.5C 253.5,270.833 253.5,272.167 253.5,273.5C 252.833,273.5 252.5,273.833 252.5,274.5C 251.5,273.167 250.5,271.833 249.5,270.5C 249.833,269.5 250.5,268.833 251.5,268.5 Z"/></g>
<g><path style="opacity:1" fill="#524c3b" d="M 271.5,271.5 C 271.5,271.833 271.5,272.167 271.5,272.5C 270.5,274.167 269.167,275.5 267.5,276.5C 267.163,273.664 265.829,272.998 263.5,274.5C 263.672,273.508 263.338,272.842 262.5,272.5C 262.5,271.833 262.833,271.5 263.5,271.5C 265.017,271.489 266.184,270.823 267,269.5C 268.049,271.107 269.549,271.773 271.5,271.5 Z"/></g>
<g><path style="opacity:1" fill="#4f4a37" d="M 232.5,271.5 C 232.5,273.167 232.5,274.833 232.5,276.5C 231.033,279.258 230.367,278.925 230.5,275.5C 230.157,273.517 230.824,272.183 232.5,271.5 Z"/></g>
<g><path style="opacity:1" fill="#5b5644" d="M 267.5,276.5 C 267.167,277.5 266.5,278.167 265.5,278.5C 265.267,276.938 264.6,275.605 263.5,274.5C 265.829,272.998 267.163,273.664 267.5,276.5 Z"/></g>
<g><path style="opacity:1" fill="#4f4939" d="M 249.5,279.5 C 247.952,279.179 247.285,278.179 247.5,276.5C 246.209,276.737 245.209,276.404 244.5,275.5C 244.5,274.833 244.833,274.5 245.5,274.5C 247.424,273.04 249.091,273.374 250.5,275.5C 248.42,276.528 248.086,277.862 249.5,279.5 Z"/></g>
<g><path style="opacity:1" fill="#575342" d="M 249.5,270.5 C 250.5,271.833 251.5,273.167 252.5,274.5C 251.89,275.391 251.557,276.391 251.5,277.5C 251.167,278.5 250.5,279.167 249.5,279.5C 248.086,277.862 248.42,276.528 250.5,275.5C 249.091,273.374 247.424,273.04 245.5,274.5C 246.5,272.833 247.833,271.5 249.5,270.5 Z"/></g>
<g><path style="opacity:1" fill="#575241" d="M 253.5,273.5 C 254.833,273.5 255.5,274.167 255.5,275.5C 257.347,276.573 259.347,276.573 261.5,275.5C 261.856,277.19 262.856,278.19 264.5,278.5C 260.19,280.706 255.857,280.373 251.5,277.5C 251.557,276.391 251.89,275.391 252.5,274.5C 252.5,273.833 252.833,273.5 253.5,273.5 Z"/></g>
<g><path style="opacity:1" fill="#635f50" d="M 253.5,269.5 C 254.984,271.074 256.651,272.407 258.5,273.5C 257.222,273.782 256.222,274.449 255.5,275.5C 255.5,274.167 254.833,273.5 253.5,273.5C 253.5,272.167 253.5,270.833 253.5,269.5 Z"/></g>
<g><path style="opacity:1" fill="#534e3f" d="M 262.5,272.5 C 262.443,273.609 262.11,274.609 261.5,275.5C 259.347,276.573 257.347,276.573 255.5,275.5C 256.222,274.449 257.222,273.782 258.5,273.5C 259.708,272.766 261.041,272.433 262.5,272.5 Z"/></g>
<g><path style="opacity:1" fill="#4d4939" d="M 262.5,272.5 C 263.338,272.842 263.672,273.508 263.5,274.5C 264.6,275.605 265.267,276.938 265.5,278.5C 265.167,278.5 264.833,278.5 264.5,278.5C 262.856,278.19 261.856,277.19 261.5,275.5C 262.11,274.609 262.443,273.609 262.5,272.5 Z"/></g>
<g><path style="opacity:1" fill="#6a685b" d="M 232.5,270.5 C 233.228,273.293 234.895,275.293 237.5,276.5C 235.833,276.5 234.167,276.5 232.5,276.5C 232.5,274.833 232.5,273.167 232.5,271.5C 232.5,271.167 232.5,270.833 232.5,270.5 Z"/></g>
<g><path style="opacity:1" fill="#555041" d="M 227.5,275.5 C 228.5,275.5 229.5,275.5 230.5,275.5C 230.367,278.925 231.033,279.258 232.5,276.5C 234.167,276.5 235.833,276.5 237.5,276.5C 236.449,277.222 235.782,278.222 235.5,279.5C 233.901,279.232 232.568,279.566 231.5,280.5C 229.003,279.871 227.67,278.204 227.5,275.5 Z"/></g>
<g><path style="opacity:1" fill="#565041" d="M 237.5,276.5 C 238.833,276.5 240.167,276.5 241.5,276.5C 240.737,277.268 239.737,277.768 238.5,278C 239.737,278.232 240.737,278.732 241.5,279.5C 239.833,279.5 238.167,279.5 236.5,279.5C 236.167,279.5 235.833,279.5 235.5,279.5C 235.782,278.222 236.449,277.222 237.5,276.5 Z"/></g>
<g><path style="opacity:1" fill="#4b4535" d="M 241.5,276.5 C 241.833,276.5 242.167,276.5 242.5,276.5C 246.946,277.209 247.279,278.209 243.5,279.5C 242.833,279.5 242.167,279.5 241.5,279.5C 240.737,278.732 239.737,278.232 238.5,278C 239.737,277.768 240.737,277.268 241.5,276.5 Z"/></g>
<g><path style="opacity:1" fill="#5b5647" d="M 242.5,276.5 C 242.842,275.662 243.508,275.328 244.5,275.5C 245.209,276.404 246.209,276.737 247.5,276.5C 247.285,278.179 247.952,279.179 249.5,279.5C 247.97,281.346 245.97,282.346 243.5,282.5C 243.5,281.5 243.5,280.5 243.5,279.5C 247.279,278.209 246.946,277.209 242.5,276.5 Z"/></g>
<g><path style="opacity:1" fill="#555140" d="M 235.5,279.5 C 235.833,279.5 236.167,279.5 236.5,279.5C 236.443,280.609 236.11,281.609 235.5,282.5C 233.847,282.34 232.514,281.674 231.5,280.5C 232.568,279.566 233.901,279.232 235.5,279.5 Z"/></g>
<g><path style="opacity:1" fill="#5d5747" d="M 236.5,279.5 C 238.167,279.5 239.833,279.5 241.5,279.5C 242.167,279.5 242.833,279.5 243.5,279.5C 243.5,280.5 243.5,281.5 243.5,282.5C 240.833,283.833 238.167,283.833 235.5,282.5C 236.11,281.609 236.443,280.609 236.5,279.5 Z"/></g>
</svg>
